<svg xmlns="http://www.w3.org/2000/svg" width="163" height="49" viewBox="0 0 163 49" fill="none">
                        <g transform="translate(-23 -15)">
                        <g transform="scale(0.30 0.30)">
                            <path d="M299.6,182.2h72.8v-11.3h-58.8v-99h-14L299.6,182.2z M387.5,182.2h15.3l31.5-83.7h-13.7L408,133.7l-12.6,35l-12.4-35l-12.6-35.1H356L387.5,182.2z M469.1,184.1c18.9,0,32.2-11.7,35.9-32.2h-12.9c-3.1,14.2-11.5,21.9-23,21.9c-14.3,0-24-11.5-24.3-32.3h61.3v-2c0-27.3-15.8-42.9-36.9-42.9c-22.2,0-37.7,16.7-37.7,43.8C431.6,168,446.9,184.1,469.1,184.1z M469.1,106.9c12.3,0,21.1,8.8,23.5,25.2h-47.1C447.7,116,456.8,106.9,469.1,106.9zM547.5,183.8c12.1,0.2,23.1-6.7,28.2-17.6v16.1h13.4V71.9h-13.6l0.2,42.9c-5-11-16.1-17.9-28.2-17.6c-20.5,0-35,16.1-35,43.3C512.5,167.9,526.8,183.8,547.5,183.8L547.5,183.8z M550.5,173.4c-14.7,0-24.6-11.7-24.6-32.9s9.9-32.9,24.6-32.9c15,0,25.1,11.8,25.1,32.9C575.5,161.7,565.4,173.4,550.5,173.4L550.5,173.4z" fill="white"></path>
                        </g>
                        </g>
                        <g clip-path="url(#clip0_111_1736)">
                            <path d="M23.9974 0.5C19.2499 0.5 14.609 1.90788 10.6616 4.54558C6.71425 7.18328 3.63776 10.9323 1.82121 15.3186C0.00466398 19.7048 -0.470349 24.5313 0.456249 29.1875C1.38285 33.8437 3.66943 38.1206 7.02683 41.4772C10.3842 44.8338 14.6616 47.1194 19.3181 48.045C23.9745 48.9705 28.8008 48.4944 33.1867 46.6768C37.5725 44.8593 41.3208 41.7819 43.9576 37.834C46.5944 33.886 48.0012 29.2448 48.0001 24.4972C47.9987 18.1323 45.4692 12.0285 40.968 7.5283C36.4667 3.0281 30.3624 0.5 23.9974 0.5ZM23.9974 4.62891C26.607 4.62819 29.1912 5.14157 31.6024 6.13972C34.0135 7.13787 36.2045 8.60125 38.05 10.4463C39.8955 12.2913 41.3595 14.4818 42.3583 16.8927C43.3571 19.3036 43.8712 21.8876 43.8712 24.4972C43.8703 25.3735 43.8133 26.2488 43.7006 27.1177C42.7261 31.654 38.7459 34.7204 35.5473 35.2379C32.6527 35.6376 29.7125 34.9554 27.2895 33.3221C28.875 31.9293 31.0386 30.019 31.7983 29.3363C34.9197 26.7874 36.4997 23.7926 36.4997 20.4344C36.4997 15.8706 33.571 12.7271 29.2108 12.5564C27.3384 12.5267 25.5272 13.2232 24.157 14.4998C22.8173 13.2929 21.0714 12.6362 19.2684 12.661C15.5028 12.661 11.7042 15.0007 11.7042 20.2252C11.7042 25.769 16.213 29.3418 16.9893 29.9144L20.8429 33.2616C18.3923 34.9474 15.3984 35.6527 12.4529 35.2379C9.26543 34.7204 5.29616 31.654 4.29972 27.1232C4.187 26.2524 4.13 25.3753 4.12906 24.4972C4.12906 19.2278 6.22232 14.1742 9.94836 10.4482C13.6744 6.72218 18.728 4.62891 23.9974 4.62891ZM24.08 30.619L19.6262 26.7379C19.5718 26.6908 19.5148 26.6467 19.4556 26.6057C19.4226 26.6057 15.8276 23.9798 15.8276 20.2252C15.8276 18.3865 16.5488 17.7148 17.0883 17.3735C17.7571 16.9858 18.5175 16.7843 19.2904 16.7899C20.1603 16.7899 21.2888 17.0101 22.3568 18.7443C22.5409 19.0473 22.8 19.2979 23.109 19.4717C23.4181 19.6456 23.7667 19.7369 24.1213 19.7369C24.4758 19.7369 24.8245 19.6456 25.1335 19.4717C25.4425 19.2979 25.7016 19.0473 25.8857 18.7443C25.8857 18.7443 27.229 16.6468 29.0732 16.7074C31.1982 16.7789 32.3763 18.1112 32.3763 20.4564C32.3763 22.5539 31.3248 24.4312 29.1558 26.1929L29.0677 26.2644C28.2805 26.925 25.6985 29.1987 24.08 30.619ZM10.4601 39.0365C10.9027 39.1546 11.351 39.2502 11.8033 39.3228C12.5712 39.4503 13.3482 39.5147 14.1265 39.5155C17.7101 39.4641 21.183 38.266 24.0359 36.0967C26.8894 38.265 30.3619 39.463 33.9453 39.5155C34.7237 39.5145 35.5006 39.4501 36.2685 39.3228C36.7023 39.2484 37.1323 39.1529 37.5567 39.0365C33.8792 42.4668 29.0374 44.3744 24.0084 44.3744C18.9794 44.3744 14.1376 42.4668 10.4601 39.0365Z" fill="white"></path>
                            </g>
                          <defs>
                            <clipPath id="clip0_111_1736">
                              <rect width="162.206" height="48" fill="white" transform="translate(0 0.5)"></rect>
                            </clipPath>
                          </defs>
                      </svg>
